<svg id="svg" version="1.1" viewBox="0 0 400 208.55397148676172" xmlns="http://www.w3.org/2000/svg" xmlns:xlink="http://www.w3.org/1999/xlink" ><g id="svgg"><path id="path0" d="M194.888 51.509 C 189.172 53.210,187.118 59.707,190.697 64.760 L 191.267 65.565 190.695 66.638 C 190.381 67.227,189.775 68.367,189.349 69.171 C 188.922 69.974,188.395 70.960,188.176 71.362 C 187.519 72.568,185.927 75.559,185.261 76.839 C 184.514 78.275,184.235 78.450,182.931 78.303 C 178.508 77.805,174.359 81.826,174.374 86.596 C 174.396 93.874,182.979 97.486,188.096 92.370 C 188.699 91.766,189.415 90.789,189.686 90.198 C 190.385 88.674,190.353 88.680,197.072 88.680 C 203.846 88.680,203.508 88.620,204.185 89.955 C 207.608 96.710,217.514 95.767,219.482 88.499 L 219.955 86.753 219.484 84.847 C 218.458 80.700,215.281 78.247,210.934 78.247 L 209.556 78.247 208.879 76.943 C 208.507 76.226,207.995 75.263,207.741 74.804 C 207.189 73.806,205.368 70.407,204.218 68.232 C 203.764 67.371,203.262 66.481,203.104 66.255 C 202.691 65.663,202.735 65.478,203.539 64.424 C 206.693 60.295,205.230 54.480,200.417 52.010 C 199.320 51.446,196.083 51.153,194.888 51.509 M199.201 56.252 C 200.797 57.560,201.273 59.034,200.611 60.618 C 199.200 63.997,195.851 64.404,193.805 61.444 C 191.443 58.027,196.007 53.634,199.201 56.252 M199.017 67.971 C 199.248 68.172,199.835 69.087,200.322 70.005 C 201.433 72.099,202.138 73.414,204.156 77.159 C 205.895 80.386,205.903 80.433,204.895 81.701 C 204.555 82.128,204.278 82.561,204.278 82.662 C 204.278 82.763,204.042 83.220,203.753 83.677 L 203.229 84.507 197.128 84.504 C 190.354 84.501,190.132 84.463,189.824 83.255 C 189.722 82.853,189.317 82.110,188.924 81.604 C 188.065 80.494,188.070 80.603,188.804 79.243 C 189.131 78.638,189.921 77.157,190.560 75.952 C 191.199 74.747,191.956 73.339,192.243 72.822 C 192.529 72.306,193.107 71.226,193.527 70.423 C 194.263 69.014,194.594 68.420,194.952 67.866 C 195.232 67.434,198.496 67.517,199.017 67.971 M183.668 82.978 C 187.613 84.522,186.705 90.312,182.503 90.407 C 178.430 90.498,177.051 84.906,180.702 83.107 C 181.836 82.549,182.498 82.520,183.668 82.978 M213.312 82.965 C 216.982 84.808,215.772 90.376,211.694 90.415 C 210.484 90.426,208.943 89.843,208.701 89.282 C 208.666 89.202,208.455 88.925,208.231 88.668 C 207.729 88.089,207.658 85.641,208.118 84.758 C 209.042 82.980,211.592 82.100,213.312 82.965 M56.338 110.527 C 49.094 112.170,46.612 120.543,51.721 126.106 C 53.705 128.267,54.899 128.568,62.076 128.720 L 68.127 128.847 69.066 129.410 C 72.719 131.602,73.250 135.449,70.338 138.615 C 68.973 140.099,68.944 140.103,58.529 140.219 L 49.139 140.323 49.139 141.888 L 49.139 143.453 59.394 143.453 C 68.868 143.453,69.679 143.425,70.052 143.088 C 70.274 142.887,70.557 142.723,70.681 142.723 C 71.464 142.723,74.458 139.804,75.263 138.257 C 76.013 136.816,76.121 132.462,75.436 131.247 C 72.574 126.163,71.430 125.591,63.745 125.398 C 58.197 125.259,56.335 124.998,55.487 124.238 C 55.306 124.076,55.071 123.942,54.965 123.940 C 54.860 123.938,54.580 123.727,54.344 123.471 C 52.140 121.076,52.339 117.544,54.815 115.140 C 56.180 113.814,55.964 113.840,66.145 113.767 C 76.636 113.692,75.952 113.816,75.952 111.996 C 75.952 110.017,76.741 110.169,66.607 110.196 C 59.572 110.214,57.409 110.284,56.338 110.527 M93.271 110.399 C 92.754 110.496,91.862 110.636,91.288 110.711 C 90.329 110.836,89.164 111.255,87.846 111.948 C 87.559 112.099,86.901 112.437,86.385 112.700 C 84.688 113.562,81.208 117.307,80.101 119.461 C 77.642 124.247,77.671 130.190,80.176 134.690 C 80.303 134.919,80.509 135.295,80.632 135.524 C 80.990 136.192,81.956 137.273,83.913 139.197 C 87.289 142.514,90.813 143.707,96.609 143.496 C 101.894 143.303,107.661 140.040,110.019 135.907 C 114.617 127.848,112.824 118.860,105.535 113.442 C 102.356 111.078,96.896 109.724,93.271 110.399 M129.786 110.405 C 129.270 110.504,128.284 110.673,127.595 110.781 C 126.496 110.954,125.137 111.461,124.152 112.067 C 123.980 112.173,123.608 112.359,123.324 112.480 C 122.074 113.015,117.988 116.932,117.303 118.252 C 115.210 122.286,114.971 123.173,114.971 126.928 C 114.971 129.055,115.061 130.226,115.267 130.773 C 115.429 131.206,115.616 131.807,115.682 132.110 C 116.057 133.828,119.083 138.462,120.337 139.239 C 120.486 139.331,120.833 139.613,121.109 139.865 C 121.386 140.117,121.816 140.464,122.067 140.636 C 122.317 140.809,122.813 141.161,123.169 141.419 C 123.525 141.677,123.915 141.888,124.036 141.888 C 124.158 141.887,124.632 142.066,125.091 142.284 C 127.867 143.603,134.635 143.990,137.420 142.989 C 140.757 141.790,145.877 137.973,145.332 137.091 C 145.118 136.743,140.528 136.821,140.233 137.177 C 139.805 137.693,137.230 139.123,135.830 139.623 C 132.089 140.957,126.250 139.610,123.195 136.708 C 121.990 135.563,120.605 133.902,120.605 133.601 C 120.605 133.485,120.438 133.166,120.234 132.892 C 119.023 131.266,118.529 125.255,119.430 123.102 C 121.073 119.170,121.960 117.959,124.465 116.218 C 125.039 115.819,125.556 115.446,125.613 115.389 C 128.151 112.851,135.140 113.310,139.676 116.314 L 141.116 117.267 143.136 117.267 C 144.248 117.267,145.210 117.214,145.274 117.150 C 145.870 116.554,140.947 112.124,139.233 111.713 C 138.915 111.637,138.389 111.440,138.064 111.277 C 136.589 110.533,131.765 110.025,129.786 110.405 M148.352 110.707 C 148.034 111.544,148.079 142.988,148.399 143.307 C 148.539 143.447,149.210 143.558,149.922 143.558 C 150.634 143.558,151.305 143.447,151.445 143.307 C 151.776 142.976,151.810 111.193,151.479 110.576 C 151.109 109.883,148.625 109.987,148.352 110.707 M164.396 111.163 C 163.984 112.112,163.757 112.808,163.070 115.232 C 162.899 115.835,162.663 116.515,162.546 116.745 C 162.346 117.135,162.182 117.669,161.362 120.605 C 161.185 121.236,160.965 121.847,160.873 121.961 C 160.781 122.076,160.635 122.545,160.549 123.003 C 160.464 123.460,160.223 124.212,160.014 124.672 C 159.805 125.132,159.632 125.682,159.629 125.894 C 159.626 126.107,159.493 126.576,159.333 126.938 C 159.172 127.299,158.943 127.971,158.823 128.430 C 158.703 128.889,158.333 130.063,158.001 131.038 C 157.668 132.014,157.137 133.657,156.820 134.690 C 156.503 135.722,156.120 136.896,155.970 137.298 C 155.501 138.547,155.017 140.076,154.792 141.016 C 154.673 141.512,154.449 142.165,154.292 142.466 C 153.849 143.319,154.213 143.558,155.946 143.554 C 157.700 143.551,157.854 143.475,158.057 142.514 C 158.142 142.113,158.335 141.549,158.484 141.262 C 158.835 140.590,159.391 138.899,159.631 137.770 C 159.735 137.284,159.952 136.627,160.115 136.310 C 160.277 135.992,160.475 135.340,160.555 134.860 C 160.805 133.351,160.885 133.333,167.428 133.333 C 173.745 133.333,174.119 133.392,174.343 134.415 C 174.427 134.795,174.616 135.387,174.765 135.732 C 174.913 136.077,175.283 137.204,175.586 138.237 C 175.889 139.270,176.265 140.443,176.421 140.845 C 176.577 141.247,176.765 141.857,176.840 142.201 C 177.086 143.335,177.468 143.558,179.173 143.558 C 181.027 143.558,181.168 143.375,180.520 141.812 C 180.274 141.218,180.070 140.594,180.066 140.424 C 180.062 140.254,179.877 139.739,179.656 139.280 C 179.434 138.821,179.249 138.283,179.245 138.085 C 179.238 137.682,178.284 134.659,178.008 134.161 C 177.911 133.985,177.767 133.516,177.689 133.118 C 177.611 132.720,177.419 132.066,177.263 131.664 C 177.106 131.262,176.729 130.089,176.425 129.056 C 176.120 128.023,175.745 126.849,175.590 126.448 C 175.101 125.173,174.627 123.660,174.433 122.747 C 174.329 122.261,174.100 121.584,173.924 121.244 C 173.749 120.904,173.605 120.474,173.605 120.289 C 173.605 120.104,173.428 119.512,173.211 118.975 C 172.995 118.437,172.557 117.109,172.237 116.024 C 171.918 114.938,171.532 113.812,171.380 113.520 C 171.228 113.228,171.103 112.763,171.102 112.486 C 171.101 112.209,170.862 111.575,170.570 111.077 L 170.040 110.172 167.433 110.172 L 164.826 110.172 164.396 111.163 M183.476 110.433 C 183.150 110.937,183.155 143.050,183.482 143.321 C 183.695 143.497,187.270 143.547,196.998 143.507 L 210.224 143.453 210.224 141.888 L 210.224 140.323 198.748 140.219 C 192.436 140.162,187.154 140.039,187.011 139.946 C 186.806 139.814,186.750 136.638,186.750 125.225 C 186.750 114.185,186.690 110.612,186.500 110.423 C 186.161 110.083,183.697 110.092,183.476 110.433 M227.126 110.489 C 226.437 110.644,225.588 110.777,225.240 110.785 C 224.891 110.792,224.237 110.986,223.787 111.215 C 223.337 111.445,222.890 111.633,222.794 111.633 C 221.540 111.633,215.900 116.525,215.008 118.388 C 214.836 118.747,214.471 119.463,214.197 119.979 C 210.791 126.391,212.889 134.952,219.117 140.057 C 223.770 143.871,232.291 144.808,237.350 142.063 C 239.990 140.630,243.426 137.792,243.232 137.205 C 243.117 136.858,238.401 136.800,238.050 137.141 C 232.765 142.267,222.412 140.450,218.443 133.700 C 213.890 125.959,218.508 115.625,227.283 113.917 C 230.465 113.297,235.769 114.529,237.246 116.229 C 238.010 117.109,241.565 117.678,242.959 117.143 C 243.868 116.794,239.723 112.935,237.246 111.823 C 235.638 111.101,235.079 110.942,232.878 110.579 C 230.079 110.117,228.861 110.098,227.126 110.489 M246.242 110.456 C 246.071 110.663,246.021 115.186,246.060 127.096 L 246.114 143.453 259.468 143.453 L 272.822 143.453 272.822 141.888 L 272.822 140.323 261.346 140.219 C 255.034 140.162,249.752 140.039,249.609 139.946 C 249.404 139.814,249.348 136.613,249.348 125.101 C 249.348 111.911,249.315 110.413,249.018 110.299 C 248.388 110.057,246.484 110.165,246.242 110.456 M275.425 110.707 C 275.069 111.644,275.156 143.035,275.516 143.333 C 275.696 143.483,276.365 143.553,277.237 143.515 L 278.665 143.453 278.718 127.096 C 278.757 115.186,278.707 110.663,278.536 110.456 C 278.063 109.886,275.664 110.081,275.425 110.707 M281.297 110.456 C 281.126 110.663,281.076 115.186,281.115 127.096 L 281.168 143.453 282.596 143.515 C 284.804 143.612,284.611 144.837,284.611 130.671 L 284.611 118.253 285.185 118.824 C 285.501 119.138,286.275 120.418,286.907 121.667 C 289.093 125.995,292.778 133.230,292.955 133.542 C 293.052 133.714,293.364 134.324,293.646 134.898 C 293.929 135.472,294.608 136.787,295.157 137.820 C 295.705 138.852,296.517 140.415,296.960 141.291 C 297.698 142.750,298.553 143.545,298.754 142.960 C 298.813 142.790,300.028 140.409,302.231 136.150 C 303.658 133.390,306.903 127.097,309.116 122.796 C 310.002 121.075,310.866 119.588,311.037 119.492 C 311.207 119.396,311.428 119.114,311.529 118.866 C 311.635 118.601,311.716 123.505,311.724 130.752 C 311.739 144.825,311.546 143.611,313.753 143.515 L 315.180 143.453 315.233 127.096 C 315.294 108.595,315.467 110.172,313.381 110.172 C 311.506 110.172,311.550 110.129,309.729 113.824 C 309.559 114.168,309.340 114.591,309.242 114.763 C 309.144 114.935,308.562 116.062,307.949 117.267 C 307.335 118.472,306.759 119.551,306.669 119.666 C 306.578 119.781,305.827 121.212,304.999 122.847 C 302.288 128.205,301.202 130.305,301.034 130.516 C 300.944 130.631,300.378 131.711,299.777 132.916 C 298.358 135.764,298.084 135.843,297.032 133.711 C 296.619 132.872,296.190 132.045,296.079 131.873 C 295.969 131.701,295.785 131.325,295.671 131.038 C 295.556 130.751,295.368 130.376,295.253 130.203 C 295.138 130.031,294.950 129.656,294.836 129.369 C 294.722 129.082,294.540 128.706,294.433 128.534 C 294.325 128.362,293.961 127.658,293.623 126.969 C 293.286 126.281,292.065 123.886,290.911 121.648 C 289.756 119.411,288.266 116.509,287.598 115.202 C 285.897 111.866,285.875 111.826,285.316 110.955 L 284.814 110.172 283.173 110.172 C 282.045 110.172,281.459 110.261,281.297 110.456 M317.796 110.576 C 317.429 111.260,317.502 143.025,317.871 143.331 C 318.085 143.509,320.831 143.557,328.252 143.513 L 338.341 143.453 339.176 142.945 C 345.205 139.272,346.458 132.010,341.768 127.914 C 341.110 127.339,341.101 126.777,341.740 126.109 C 342.578 125.232,343.871 123.234,343.871 122.816 C 343.871 122.622,344.021 122.172,344.204 121.817 C 344.431 121.379,344.538 120.620,344.538 119.457 C 344.538 118.295,344.431 117.536,344.204 117.098 C 344.021 116.743,343.870 116.331,343.869 116.181 C 343.865 115.282,341.081 112.195,339.545 111.387 C 337.128 110.115,318.416 109.417,317.796 110.576 M97.653 114.021 C 104.068 114.955,108.421 120.210,108.377 126.969 C 108.349 131.268,107.683 133.026,105.007 135.863 C 96.408 144.978,81.421 138.408,82.342 125.926 C 82.409 125.008,82.596 123.984,82.756 123.651 C 82.916 123.318,83.046 122.913,83.046 122.751 C 83.046 120.114,89.214 114.208,92.058 114.122 C 92.323 114.114,92.728 114.027,92.958 113.928 C 93.581 113.660,95.425 113.697,97.653 114.021 M336.272 113.963 C 340.629 114.824,342.420 121.933,338.758 123.836 C 338.529 123.955,338.106 124.208,337.820 124.398 C 336.475 125.287,335.351 125.404,328.206 125.404 C 322.174 125.404,321.365 125.366,321.253 125.074 C 320.907 124.171,321.121 114.161,321.492 113.945 C 322.021 113.636,334.697 113.652,336.272 113.963 M168.156 114.865 C 168.399 115.380,168.599 115.967,168.601 116.169 C 168.604 116.371,168.777 116.913,168.986 117.373 C 169.195 117.833,169.431 118.557,169.511 118.981 C 169.591 119.406,169.792 120.015,169.960 120.335 C 170.127 120.656,170.264 121.099,170.265 121.320 C 170.266 121.755,171.150 124.476,171.635 125.540 C 171.800 125.902,171.935 126.333,171.935 126.499 C 171.935 126.664,172.122 127.342,172.350 128.004 C 172.916 129.649,173.133 129.577,167.535 129.577 C 162.125 129.577,161.958 129.541,162.520 128.468 C 162.652 128.217,162.888 127.543,163.046 126.969 C 163.204 126.395,163.438 125.621,163.565 125.248 C 163.964 124.083,164.231 123.260,164.663 121.857 C 164.892 121.111,165.212 120.078,165.372 119.562 C 165.532 119.045,165.844 118.013,166.065 117.267 C 167.057 113.919,167.482 113.430,168.156 114.865 M336.985 129.258 C 341.766 131.280,342.059 137.314,337.491 139.677 L 336.432 140.224 328.832 140.170 L 321.231 140.115 321.176 134.549 C 321.124 129.380,321.146 128.976,321.489 128.879 C 322.674 128.543,336.070 128.871,336.985 129.258 M134.585 152.506 C 132.933 152.866,132.147 153.475,131.877 154.600 C 131.288 157.056,132.592 158.477,135.939 159.027 C 137.868 159.344,138.591 160.429,137.396 161.213 C 136.728 161.650,134.494 161.517,133.692 160.991 C 132.312 160.088,131.227 161.470,132.454 162.567 C 132.827 162.899,133.294 163.173,133.493 163.175 C 133.692 163.176,134.278 163.326,134.794 163.507 C 137.350 164.403,140.004 162.878,140.182 160.413 L 140.271 159.180 139.307 158.282 C 138.713 157.729,138.073 157.340,137.643 157.270 C 133.910 156.665,132.570 155.325,134.896 154.526 C 135.570 154.294,135.845 154.310,136.923 154.646 C 138.440 155.118,138.639 155.124,139.057 154.706 C 140.259 153.503,137.113 151.955,134.585 152.506 M175.170 152.446 C 170.610 153.548,171.319 158.312,176.140 158.971 C 177.695 159.184,178.404 159.653,178.404 160.469 C 178.404 161.552,176.246 161.887,174.469 161.080 C 173.290 160.546,173.094 160.559,172.584 161.208 L 172.159 161.748 172.598 162.342 C 172.901 162.752,173.297 162.980,173.874 163.077 C 174.333 163.155,175.045 163.359,175.455 163.530 C 176.902 164.135,179.491 163.317,180.262 162.011 C 181.630 159.692,180.358 157.854,176.747 156.931 C 174.786 156.431,174.555 156.321,174.425 155.833 C 174.076 154.530,175.418 154.098,177.779 154.755 C 179.139 155.133,179.864 154.862,179.864 153.976 C 179.864 153.092,176.727 152.070,175.170 152.446 M186.162 152.464 C 184.884 152.639,183.557 153.598,183.283 154.544 C 182.605 156.886,183.999 158.444,187.283 159.016 C 189.249 159.358,189.950 160.181,189.045 161.085 C 188.461 161.669,186.579 161.659,185.350 161.064 C 184.236 160.525,183.513 160.653,183.320 161.423 C 183.145 162.118,183.807 162.884,184.742 163.072 C 185.100 163.144,185.793 163.350,186.281 163.529 C 188.771 164.443,191.549 162.818,191.549 160.448 C 191.549 158.401,190.802 157.718,187.689 156.920 C 184.948 156.218,184.356 155.401,186.056 154.665 C 186.911 154.295,187.123 154.276,187.780 154.507 C 189.171 154.998,190.201 155.088,190.486 154.745 C 191.502 153.521,188.810 152.101,186.162 152.464 M215.232 152.506 C 210.648 153.710,211.509 158.147,216.495 159.016 C 218.479 159.361,219.202 160.369,218.092 161.242 C 217.565 161.656,215.551 161.565,214.656 161.085 C 213.449 160.438,212.914 160.555,212.564 161.541 C 212.382 162.053,213.145 162.908,213.931 163.072 C 214.302 163.149,215.055 163.356,215.603 163.531 C 218.218 164.366,220.762 162.830,220.762 160.417 C 220.762 158.387,220.116 157.815,216.797 156.902 C 214.406 156.244,213.873 155.690,214.860 154.886 C 215.632 154.257,216.045 154.231,217.704 154.704 C 219.336 155.169,219.787 155.039,219.883 154.074 C 219.987 153.032,217.027 152.034,215.232 152.506 M244.653 152.506 C 240.119 153.696,240.938 158.123,245.857 159.006 C 247.849 159.364,248.605 160.384,247.513 161.242 C 246.986 161.656,244.972 161.565,244.077 161.085 C 243.040 160.529,242.543 160.559,242.122 161.201 C 241.688 161.864,242.212 162.744,243.214 163.033 C 243.546 163.129,244.271 163.352,244.825 163.529 C 247.546 164.398,250.183 162.866,250.183 160.417 C 250.183 158.379,249.409 157.686,246.242 156.885 C 243.798 156.267,243.234 155.712,244.238 154.910 C 245.057 154.258,245.452 154.231,247.115 154.713 C 248.744 155.185,249.244 155.038,249.244 154.089 C 249.244 153.004,246.439 152.037,244.653 152.506 M108.510 152.934 C 108.189 153.533,108.221 162.806,108.545 163.130 C 108.873 163.458,113.485 163.467,114.572 163.142 C 116.589 162.537,117.195 160.335,115.821 158.600 L 115.120 157.716 115.568 156.920 C 116.350 155.527,116.056 153.920,114.843 152.966 C 114.029 152.325,108.850 152.299,108.510 152.934 M119.681 152.858 C 119.278 153.261,119.210 158.729,119.586 160.483 C 119.903 161.958,121.189 163.079,123.260 163.686 C 123.878 163.867,126.790 163.038,127.289 162.539 C 129.168 160.660,129.450 152.530,127.635 152.530 C 126.674 152.530,126.557 152.950,126.448 156.779 C 126.320 161.253,125.732 162.152,123.353 161.512 C 121.672 161.059,121.440 160.488,121.440 156.805 C 121.440 152.693,120.948 151.591,119.681 152.858 M143.349 153.051 C 143.069 153.789,143.075 162.451,143.356 162.977 C 143.494 163.235,143.793 163.380,144.184 163.380 C 144.574 163.380,144.873 163.235,145.011 162.977 C 145.337 162.368,145.291 153.817,144.958 153.156 C 144.572 152.389,143.624 152.327,143.349 153.051 M156.495 152.734 C 156.250 152.888,156.166 153.504,156.112 155.548 C 156.022 158.947,155.971 158.952,152.739 155.853 C 148.590 151.876,148.774 151.777,148.774 157.994 C 148.774 162.985,148.851 163.380,149.817 163.380 C 150.709 163.380,150.861 162.898,150.861 160.055 C 150.861 157.033,150.852 157.036,153.029 159.115 C 155.660 161.628,157.604 163.168,157.868 162.948 C 158.223 162.654,158.304 153.968,157.960 153.065 C 157.746 152.503,157.095 152.355,156.495 152.734 M161.567 152.791 C 161.185 153.380,161.237 162.555,161.625 162.983 C 162.110 163.519,168.784 163.596,169.220 163.070 C 170.098 162.012,169.123 161.509,166.187 161.505 C 163.835 161.502,163.587 161.383,163.592 160.261 C 163.597 159.072,163.704 159.019,166.205 158.954 L 168.492 158.894 168.560 158.308 C 168.677 157.281,168.342 157.121,166.075 157.121 C 163.811 157.121,163.589 156.994,163.589 155.706 C 163.589 154.615,164.078 154.408,166.658 154.408 C 169.172 154.408,169.590 154.234,169.353 153.288 C 169.181 152.606,168.782 152.536,165.010 152.533 C 162.617 152.531,161.690 152.600,161.567 152.791 M229.741 152.934 C 229.076 154.177,229.577 161.184,230.395 162.070 C 231.705 163.489,233.473 163.939,235.440 163.353 C 238.282 162.506,238.706 161.657,238.706 156.823 C 238.706 153.144,238.578 152.528,237.812 152.533 C 236.781 152.540,236.731 152.704,236.620 156.444 C 236.482 161.073,235.825 162.095,233.381 161.479 C 231.717 161.060,231.521 160.557,231.435 156.495 C 231.394 154.573,231.267 152.936,231.148 152.791 C 230.824 152.394,229.985 152.479,229.741 152.934 M253.223 152.858 C 252.774 153.307,252.758 158.987,253.202 160.653 C 253.581 162.077,254.791 163.097,256.802 163.686 C 257.476 163.884,260.420 163.005,260.990 162.436 C 262.961 160.470,262.849 152.134,260.859 152.633 C 260.063 152.833,260.103 152.647,259.990 156.689 C 259.876 160.742,259.825 160.913,258.584 161.432 C 257.693 161.804,256.356 161.510,255.627 160.782 C 255.095 160.251,255.084 160.179,254.982 156.586 C 254.898 153.645,254.816 152.893,254.564 152.734 C 254.100 152.441,253.593 152.488,253.223 152.858 M277.929 153.065 C 277.653 153.792,277.664 162.458,277.942 162.977 C 278.141 163.350,278.409 163.380,281.525 163.380 C 285.425 163.380,285.906 163.219,285.329 162.103 L 285.018 161.502 282.819 161.502 C 279.607 161.502,279.812 161.791,279.812 157.264 C 279.812 154.157,279.753 153.372,279.487 152.994 C 279.030 152.341,278.190 152.380,277.929 153.065 M204.321 153.310 C 204.098 153.627,203.616 154.497,203.250 155.243 C 202.884 155.989,202.496 156.740,202.387 156.912 C 202.279 157.084,202.097 157.460,201.983 157.746 C 201.868 158.033,201.680 158.409,201.565 158.581 C 201.450 158.753,201.259 159.129,201.141 159.416 C 201.022 159.703,200.607 160.543,200.217 161.284 C 199.458 162.726,199.494 163.380,200.331 163.380 C 200.979 163.380,201.937 162.807,202.090 162.327 C 202.501 161.032,207.302 161.226,207.723 162.555 C 207.954 163.283,209.742 163.705,209.979 163.088 C 210.041 162.927,209.818 162.293,209.483 161.679 C 209.149 161.065,208.776 160.329,208.655 160.042 C 208.474 159.613,206.611 155.906,205.380 153.525 C 204.954 152.701,204.776 152.664,204.321 153.310 M269.650 153.209 C 269.415 153.467,268.689 154.757,268.037 156.077 C 267.384 157.397,266.765 158.618,266.661 158.790 C 265.925 160.009,264.808 162.694,264.907 163.006 C 265.086 163.572,267.077 163.286,267.082 162.693 C 267.090 161.927,268.136 161.502,270.014 161.502 L 271.920 161.502 272.833 162.441 C 273.799 163.435,274.892 163.730,275.147 163.066 C 275.243 162.815,272.426 156.925,270.597 153.554 C 270.122 152.678,270.130 152.681,269.650 153.209 M113.608 154.820 C 114.226 155.333,114.014 156.379,113.235 156.661 C 111.030 157.459,109.157 156.074,110.746 154.820 C 111.385 154.316,113.001 154.315,113.608 154.820 M205.513 158.381 C 206.110 159.639,205.963 159.887,204.673 159.794 C 203.530 159.712,203.400 159.295,204.158 158.149 C 204.849 157.105,204.912 157.115,205.513 158.381 M270.467 157.903 C 270.602 158.219,270.846 158.638,271.010 158.834 C 271.537 159.466,271.170 159.833,270.012 159.833 C 268.703 159.833,268.566 159.396,269.447 158.036 C 269.999 157.183,270.152 157.163,270.467 157.903 M113.943 159.139 C 115.377 160.573,112.577 162.358,110.576 161.286 C 109.974 160.964,110.016 159.553,110.642 159.098 C 111.144 158.733,113.567 158.763,113.943 159.139 " stroke="none" fill="#000000" fill-rule="evenodd"></path></g></svg>